<svg width="77" height="28" viewBox="0 0 77 28" fill="none" xmlns="http://www.w3.org/2000/svg">
<path d="M0.28125 0.75H3.5625V27H0.28125V0.75ZM26.668 12.2344C28.4681 12.2344 30.0119 12.3084 31.2993 12.4565C32.5868 12.6047 33.6691 12.8268 34.5464 13.123C35.4351 13.4079 36.1414 13.7668 36.6655 14.1997C37.1896 14.6326 37.5941 15.1283 37.8789 15.6865C38.1637 16.2334 38.346 16.8486 38.4258 17.5322C38.5169 18.2158 38.5625 18.9564 38.5625 19.7539C38.5625 20.5514 38.4884 21.3034 38.3403 22.0098C38.2036 22.7048 37.953 23.3428 37.5884 23.9238C37.2238 24.5049 36.7282 25.0233 36.1016 25.479C35.4749 25.9347 34.6774 26.3221 33.709 26.6411C32.7406 26.9601 31.5728 27.1994 30.2056 27.3589C28.8498 27.5298 27.2604 27.6152 25.4375 27.6152H21.0625C19.4219 27.6152 17.9863 27.5526 16.7559 27.4272C15.5254 27.3019 14.4658 27.1139 13.5771 26.8633C12.6885 26.6012 11.9536 26.2765 11.3726 25.8892C10.7915 25.4904 10.3244 25.029 9.97119 24.5049C9.62939 23.9694 9.39014 23.3656 9.25342 22.6934C9.1167 22.0098 9.04834 21.2578 9.04834 20.4375H12.3296C12.3296 21.4629 12.4777 22.2661 12.7739 22.8472C13.0701 23.4282 13.5601 23.8669 14.2437 24.1631C14.9272 24.4479 15.8216 24.6302 16.9268 24.71C18.0433 24.7783 19.4219 24.8125 21.0625 24.8125H25.4375C27.3516 24.8125 28.9409 24.7214 30.2056 24.5391C31.4702 24.3568 32.4785 24.0662 33.2305 23.6675C33.9824 23.2687 34.5122 22.7503 34.8198 22.1123C35.1274 21.4629 35.2812 20.6768 35.2812 19.7539C35.2812 18.8311 35.173 18.062 34.9565 17.4468C34.7515 16.8315 34.3356 16.3416 33.709 15.9771C33.0938 15.6125 32.2222 15.3561 31.0942 15.208C29.9663 15.0485 28.4909 14.9688 26.668 14.9688H22.1562C20.151 14.9688 18.4307 14.8947 16.9951 14.7466C15.571 14.5985 14.3747 14.3877 13.4062 14.1143C12.4378 13.8294 11.6631 13.4819 11.082 13.0718C10.501 12.6502 10.0566 12.1717 9.74902 11.6362C9.4528 11.1007 9.25911 10.5083 9.16797 9.85889C9.07682 9.19808 9.03125 8.486 9.03125 7.72266C9.03125 6.92513 9.09961 6.18457 9.23633 5.50098C9.38444 4.81738 9.65218 4.20215 10.0396 3.65527C10.4269 3.09701 10.9567 2.6014 11.6289 2.16846C12.3011 1.73551 13.1613 1.37663 14.2095 1.0918C15.269 0.795573 16.5394 0.573405 18.0205 0.425293C19.5016 0.277181 21.2448 0.203125 23.25 0.203125H26.5312C28.1719 0.203125 29.6074 0.265788 30.8379 0.391113C32.0684 0.505046 33.1279 0.693034 34.0166 0.955078C34.9053 1.20573 35.6401 1.52474 36.2212 1.91211C36.8136 2.28809 37.2808 2.74382 37.6226 3.2793C37.9757 3.80339 38.2207 4.40153 38.3574 5.07373C38.4941 5.74593 38.5625 6.49219 38.5625 7.3125H35.2812C35.2812 6.28711 35.1331 5.48389 34.8369 4.90283C34.5407 4.32178 34.0508 3.88883 33.3672 3.604C32.6836 3.30778 31.7835 3.12549 30.667 3.05713C29.5505 2.97738 28.1719 2.9375 26.5312 2.9375H23.25C21.0625 2.9375 19.2624 3.01725 17.8496 3.17676C16.4368 3.32487 15.3203 3.58122 14.5 3.9458C13.6797 4.31038 13.11 4.80029 12.791 5.41553C12.472 6.03076 12.3125 6.7998 12.3125 7.72266C12.3125 8.29232 12.3524 8.79932 12.4321 9.24365C12.5119 9.68799 12.6714 10.0811 12.9106 10.4229C13.1613 10.7533 13.5088 11.0324 13.9531 11.2603C14.3975 11.4881 14.9842 11.6761 15.7134 11.8242C16.4425 11.9723 17.3312 12.0806 18.3794 12.1489C19.439 12.2059 20.6979 12.2344 22.1562 12.2344H26.668ZM61.4116 13.1572L76.8438 27H72.1953L59.1216 15.2764L46.4922 27H41.8438L56.7632 13.1572L42.9375 0.75H47.5859L59.0361 11.0381L70.1274 0.75H74.7759L61.4116 13.1572Z" fill="url(#paint0_linear_325_5)"/>
<defs>
<linearGradient id="paint0_linear_325_5" x1="-3" y1="11" x2="78" y2="11" gradientUnits="userSpaceOnUse">
<stop stop-color="#DE3C4B"/>
<stop offset="1" stop-color="#87F5FB"/>
</linearGradient>
</defs>
</svg>
